<mxfile host="Electron" agent="Mozilla/5.0 (Macintosh; Intel Mac OS X 10_15_7) AppleWebKit/537.36 (KHTML, like Gecko) draw.io/24.7.8 Chrome/128.0.6613.36 Electron/32.0.1 Safari/537.36" version="24.7.8">
  <diagram name="Page-1" id="7hhpWpy4hfd2YE_7e2Lc">
    <mxGraphModel dx="1537" dy="518" grid="1" gridSize="10" guides="1" tooltips="1" connect="1" arrows="1" fold="1" page="1" pageScale="1" pageWidth="827" pageHeight="1169" math="0" shadow="0">
      <root>
        <mxCell id="0" />
        <mxCell id="1" parent="0" />
        <mxCell id="To5orF7uD1d0cIAcC4Yz-1" value="" style="group" vertex="1" connectable="0" parent="1">
          <mxGeometry x="60" y="320" width="60" height="160" as="geometry" />
        </mxCell>
        <mxCell id="To5orF7uD1d0cIAcC4Yz-2" value="" style="group" vertex="1" connectable="0" parent="To5orF7uD1d0cIAcC4Yz-1">
          <mxGeometry y="-5" width="44" height="165" as="geometry" />
        </mxCell>
        <mxCell id="To5orF7uD1d0cIAcC4Yz-6" value="" style="rounded=0;whiteSpace=wrap;html=1;strokeColor=none;fillStyle=solid;fillColor=#97D077;" vertex="1" parent="To5orF7uD1d0cIAcC4Yz-2">
          <mxGeometry x="2" y="5" width="40" height="160" as="geometry" />
        </mxCell>
        <mxCell id="To5orF7uD1d0cIAcC4Yz-7" value="" style="endArrow=none;html=1;rounded=0;strokeWidth=4;" edge="1" parent="To5orF7uD1d0cIAcC4Yz-2">
          <mxGeometry width="50" height="50" relative="1" as="geometry">
            <mxPoint x="2" y="165" as="sourcePoint" />
            <mxPoint x="2" as="targetPoint" />
          </mxGeometry>
        </mxCell>
        <mxCell id="To5orF7uD1d0cIAcC4Yz-8" value="" style="endArrow=none;html=1;rounded=0;strokeWidth=4;" edge="1" parent="To5orF7uD1d0cIAcC4Yz-2">
          <mxGeometry width="50" height="50" relative="1" as="geometry">
            <mxPoint x="42" y="165" as="sourcePoint" />
            <mxPoint x="42" as="targetPoint" />
          </mxGeometry>
        </mxCell>
        <mxCell id="To5orF7uD1d0cIAcC4Yz-9" value="" style="endArrow=none;html=1;rounded=0;strokeWidth=4;" edge="1" parent="To5orF7uD1d0cIAcC4Yz-2">
          <mxGeometry width="50" height="50" relative="1" as="geometry">
            <mxPoint x="44" y="165" as="sourcePoint" />
            <mxPoint y="165" as="targetPoint" />
          </mxGeometry>
        </mxCell>
        <mxCell id="To5orF7uD1d0cIAcC4Yz-10" value="" style="group" vertex="1" connectable="0" parent="1">
          <mxGeometry x="120" y="320" width="60" height="160" as="geometry" />
        </mxCell>
        <mxCell id="To5orF7uD1d0cIAcC4Yz-14" value="" style="rounded=0;whiteSpace=wrap;html=1;strokeColor=none;fillStyle=solid;fillColor=#FFCCE6;" vertex="1" parent="To5orF7uD1d0cIAcC4Yz-10">
          <mxGeometry x="2" width="40" height="160" as="geometry" />
        </mxCell>
        <mxCell id="To5orF7uD1d0cIAcC4Yz-15" value="" style="endArrow=none;html=1;rounded=0;strokeWidth=4;" edge="1" parent="To5orF7uD1d0cIAcC4Yz-10">
          <mxGeometry width="50" height="50" relative="1" as="geometry">
            <mxPoint x="2" y="160" as="sourcePoint" />
            <mxPoint x="2" y="-5" as="targetPoint" />
          </mxGeometry>
        </mxCell>
        <mxCell id="To5orF7uD1d0cIAcC4Yz-16" value="" style="endArrow=none;html=1;rounded=0;strokeWidth=4;" edge="1" parent="To5orF7uD1d0cIAcC4Yz-10">
          <mxGeometry width="50" height="50" relative="1" as="geometry">
            <mxPoint x="42" y="160" as="sourcePoint" />
            <mxPoint x="42" y="-5" as="targetPoint" />
          </mxGeometry>
        </mxCell>
        <mxCell id="To5orF7uD1d0cIAcC4Yz-17" value="" style="endArrow=none;html=1;rounded=0;strokeWidth=4;" edge="1" parent="To5orF7uD1d0cIAcC4Yz-10">
          <mxGeometry width="50" height="50" relative="1" as="geometry">
            <mxPoint x="44" y="160" as="sourcePoint" />
            <mxPoint y="160" as="targetPoint" />
          </mxGeometry>
        </mxCell>
        <mxCell id="To5orF7uD1d0cIAcC4Yz-18" value="" style="group" vertex="1" connectable="0" parent="1">
          <mxGeometry x="420" y="320" width="60" height="160" as="geometry" />
        </mxCell>
        <mxCell id="To5orF7uD1d0cIAcC4Yz-19" value="" style="endArrow=none;html=1;rounded=0;strokeWidth=4;" edge="1" parent="To5orF7uD1d0cIAcC4Yz-18">
          <mxGeometry width="50" height="50" relative="1" as="geometry">
            <mxPoint x="2" y="160" as="sourcePoint" />
            <mxPoint x="2" y="-5" as="targetPoint" />
          </mxGeometry>
        </mxCell>
        <mxCell id="To5orF7uD1d0cIAcC4Yz-20" value="" style="endArrow=none;html=1;rounded=0;strokeWidth=4;" edge="1" parent="To5orF7uD1d0cIAcC4Yz-18">
          <mxGeometry width="50" height="50" relative="1" as="geometry">
            <mxPoint x="42" y="160" as="sourcePoint" />
            <mxPoint x="42" y="-5" as="targetPoint" />
          </mxGeometry>
        </mxCell>
        <mxCell id="To5orF7uD1d0cIAcC4Yz-21" value="" style="endArrow=none;html=1;rounded=0;strokeWidth=4;" edge="1" parent="To5orF7uD1d0cIAcC4Yz-18">
          <mxGeometry width="50" height="50" relative="1" as="geometry">
            <mxPoint x="44" y="160" as="sourcePoint" />
            <mxPoint y="160" as="targetPoint" />
          </mxGeometry>
        </mxCell>
        <mxCell id="To5orF7uD1d0cIAcC4Yz-22" value="" style="group" vertex="1" connectable="0" parent="1">
          <mxGeometry x="180" y="320" width="60" height="160" as="geometry" />
        </mxCell>
        <mxCell id="To5orF7uD1d0cIAcC4Yz-23" value="" style="group" vertex="1" connectable="0" parent="To5orF7uD1d0cIAcC4Yz-22">
          <mxGeometry y="-5" width="44" height="165" as="geometry" />
        </mxCell>
        <mxCell id="To5orF7uD1d0cIAcC4Yz-27" value="" style="rounded=0;whiteSpace=wrap;html=1;strokeColor=none;fillStyle=solid;fillColor=#FFD966;" vertex="1" parent="To5orF7uD1d0cIAcC4Yz-23">
          <mxGeometry x="2" y="5" width="40" height="160" as="geometry" />
        </mxCell>
        <mxCell id="To5orF7uD1d0cIAcC4Yz-28" value="" style="endArrow=none;html=1;rounded=0;strokeWidth=4;" edge="1" parent="To5orF7uD1d0cIAcC4Yz-23">
          <mxGeometry width="50" height="50" relative="1" as="geometry">
            <mxPoint x="2" y="165" as="sourcePoint" />
            <mxPoint x="2" as="targetPoint" />
          </mxGeometry>
        </mxCell>
        <mxCell id="To5orF7uD1d0cIAcC4Yz-29" value="" style="endArrow=none;html=1;rounded=0;strokeWidth=4;" edge="1" parent="To5orF7uD1d0cIAcC4Yz-23">
          <mxGeometry width="50" height="50" relative="1" as="geometry">
            <mxPoint x="42" y="165" as="sourcePoint" />
            <mxPoint x="42" as="targetPoint" />
          </mxGeometry>
        </mxCell>
        <mxCell id="To5orF7uD1d0cIAcC4Yz-30" value="" style="endArrow=none;html=1;rounded=0;strokeWidth=4;" edge="1" parent="To5orF7uD1d0cIAcC4Yz-23">
          <mxGeometry width="50" height="50" relative="1" as="geometry">
            <mxPoint x="44" y="165" as="sourcePoint" />
            <mxPoint y="165" as="targetPoint" />
          </mxGeometry>
        </mxCell>
        <mxCell id="To5orF7uD1d0cIAcC4Yz-31" value="" style="group" vertex="1" connectable="0" parent="1">
          <mxGeometry x="240" y="320" width="60" height="160" as="geometry" />
        </mxCell>
        <mxCell id="To5orF7uD1d0cIAcC4Yz-35" value="" style="rounded=0;whiteSpace=wrap;html=1;strokeColor=none;fillStyle=solid;fillColor=#FFF8F0;" vertex="1" parent="To5orF7uD1d0cIAcC4Yz-31">
          <mxGeometry x="2" width="40" height="160" as="geometry" />
        </mxCell>
        <mxCell id="To5orF7uD1d0cIAcC4Yz-36" value="" style="endArrow=none;html=1;rounded=0;strokeWidth=4;" edge="1" parent="To5orF7uD1d0cIAcC4Yz-31">
          <mxGeometry width="50" height="50" relative="1" as="geometry">
            <mxPoint x="2" y="160" as="sourcePoint" />
            <mxPoint x="2" y="-5" as="targetPoint" />
          </mxGeometry>
        </mxCell>
        <mxCell id="To5orF7uD1d0cIAcC4Yz-37" value="" style="endArrow=none;html=1;rounded=0;strokeWidth=4;" edge="1" parent="To5orF7uD1d0cIAcC4Yz-31">
          <mxGeometry width="50" height="50" relative="1" as="geometry">
            <mxPoint x="42" y="160" as="sourcePoint" />
            <mxPoint x="42" y="-5" as="targetPoint" />
          </mxGeometry>
        </mxCell>
        <mxCell id="To5orF7uD1d0cIAcC4Yz-38" value="" style="endArrow=none;html=1;rounded=0;strokeWidth=4;" edge="1" parent="To5orF7uD1d0cIAcC4Yz-31">
          <mxGeometry width="50" height="50" relative="1" as="geometry">
            <mxPoint x="44" y="160" as="sourcePoint" />
            <mxPoint y="160" as="targetPoint" />
          </mxGeometry>
        </mxCell>
        <mxCell id="To5orF7uD1d0cIAcC4Yz-39" value="" style="group" vertex="1" connectable="0" parent="1">
          <mxGeometry x="480" y="320" width="60" height="160" as="geometry" />
        </mxCell>
        <mxCell id="To5orF7uD1d0cIAcC4Yz-40" value="" style="endArrow=none;html=1;rounded=0;strokeWidth=4;" edge="1" parent="To5orF7uD1d0cIAcC4Yz-39">
          <mxGeometry width="50" height="50" relative="1" as="geometry">
            <mxPoint x="2" y="160" as="sourcePoint" />
            <mxPoint x="2" y="-5" as="targetPoint" />
          </mxGeometry>
        </mxCell>
        <mxCell id="To5orF7uD1d0cIAcC4Yz-41" value="" style="endArrow=none;html=1;rounded=0;strokeWidth=4;" edge="1" parent="To5orF7uD1d0cIAcC4Yz-39">
          <mxGeometry width="50" height="50" relative="1" as="geometry">
            <mxPoint x="42" y="160" as="sourcePoint" />
            <mxPoint x="42" y="-5" as="targetPoint" />
          </mxGeometry>
        </mxCell>
        <mxCell id="To5orF7uD1d0cIAcC4Yz-42" value="" style="endArrow=none;html=1;rounded=0;strokeWidth=4;" edge="1" parent="To5orF7uD1d0cIAcC4Yz-39">
          <mxGeometry width="50" height="50" relative="1" as="geometry">
            <mxPoint x="44" y="160" as="sourcePoint" />
            <mxPoint y="160" as="targetPoint" />
          </mxGeometry>
        </mxCell>
        <mxCell id="To5orF7uD1d0cIAcC4Yz-43" value="" style="group" vertex="1" connectable="0" parent="1">
          <mxGeometry x="300" y="320" width="60" height="160" as="geometry" />
        </mxCell>
        <mxCell id="To5orF7uD1d0cIAcC4Yz-47" value="" style="rounded=0;whiteSpace=wrap;html=1;strokeColor=none;fillStyle=solid;fillColor=#EA6B66;" vertex="1" parent="To5orF7uD1d0cIAcC4Yz-43">
          <mxGeometry x="2" width="40" height="160" as="geometry" />
        </mxCell>
        <mxCell id="To5orF7uD1d0cIAcC4Yz-48" value="" style="endArrow=none;html=1;rounded=0;strokeWidth=4;" edge="1" parent="To5orF7uD1d0cIAcC4Yz-43">
          <mxGeometry width="50" height="50" relative="1" as="geometry">
            <mxPoint x="2" y="160" as="sourcePoint" />
            <mxPoint x="2" y="-5" as="targetPoint" />
          </mxGeometry>
        </mxCell>
        <mxCell id="To5orF7uD1d0cIAcC4Yz-49" value="" style="endArrow=none;html=1;rounded=0;strokeWidth=4;" edge="1" parent="To5orF7uD1d0cIAcC4Yz-43">
          <mxGeometry width="50" height="50" relative="1" as="geometry">
            <mxPoint x="42" y="160" as="sourcePoint" />
            <mxPoint x="42" y="-5" as="targetPoint" />
          </mxGeometry>
        </mxCell>
        <mxCell id="To5orF7uD1d0cIAcC4Yz-50" value="" style="endArrow=none;html=1;rounded=0;strokeWidth=4;" edge="1" parent="To5orF7uD1d0cIAcC4Yz-43">
          <mxGeometry width="50" height="50" relative="1" as="geometry">
            <mxPoint x="44" y="160" as="sourcePoint" />
            <mxPoint y="160" as="targetPoint" />
          </mxGeometry>
        </mxCell>
        <mxCell id="To5orF7uD1d0cIAcC4Yz-51" value="" style="group" vertex="1" connectable="0" parent="1">
          <mxGeometry x="360" y="320" width="60" height="165" as="geometry" />
        </mxCell>
        <mxCell id="To5orF7uD1d0cIAcC4Yz-55" value="" style="rounded=0;whiteSpace=wrap;html=1;strokeColor=none;fillStyle=solid;fillColor=#B5739D;" vertex="1" parent="To5orF7uD1d0cIAcC4Yz-51">
          <mxGeometry x="2" width="40" height="160" as="geometry" />
        </mxCell>
        <mxCell id="To5orF7uD1d0cIAcC4Yz-56" value="" style="endArrow=none;html=1;rounded=0;strokeWidth=4;" edge="1" parent="To5orF7uD1d0cIAcC4Yz-51">
          <mxGeometry width="50" height="50" relative="1" as="geometry">
            <mxPoint x="2" y="160" as="sourcePoint" />
            <mxPoint x="2" y="-5" as="targetPoint" />
          </mxGeometry>
        </mxCell>
        <mxCell id="To5orF7uD1d0cIAcC4Yz-57" value="" style="endArrow=none;html=1;rounded=0;strokeWidth=4;" edge="1" parent="To5orF7uD1d0cIAcC4Yz-51">
          <mxGeometry width="50" height="50" relative="1" as="geometry">
            <mxPoint x="42" y="160" as="sourcePoint" />
            <mxPoint x="42" y="-5" as="targetPoint" />
          </mxGeometry>
        </mxCell>
        <mxCell id="To5orF7uD1d0cIAcC4Yz-58" value="" style="endArrow=none;html=1;rounded=0;strokeWidth=4;" edge="1" parent="To5orF7uD1d0cIAcC4Yz-51">
          <mxGeometry width="50" height="50" relative="1" as="geometry">
            <mxPoint x="44" y="160" as="sourcePoint" />
            <mxPoint y="160" as="targetPoint" />
          </mxGeometry>
        </mxCell>
        <mxCell id="To5orF7uD1d0cIAcC4Yz-59" value="" style="group" vertex="1" connectable="0" parent="1">
          <mxGeometry y="320" width="44" height="160" as="geometry" />
        </mxCell>
        <mxCell id="To5orF7uD1d0cIAcC4Yz-60" value="" style="rounded=0;whiteSpace=wrap;html=1;strokeColor=none;fillStyle=solid;fillColor=#7EA6E0;" vertex="1" parent="To5orF7uD1d0cIAcC4Yz-59">
          <mxGeometry x="2" width="40" height="160" as="geometry" />
        </mxCell>
        <mxCell id="To5orF7uD1d0cIAcC4Yz-61" value="" style="group" vertex="1" connectable="0" parent="To5orF7uD1d0cIAcC4Yz-59">
          <mxGeometry width="44" height="160" as="geometry" />
        </mxCell>
        <mxCell id="To5orF7uD1d0cIAcC4Yz-65" value="" style="endArrow=none;html=1;rounded=0;strokeWidth=4;" edge="1" parent="To5orF7uD1d0cIAcC4Yz-61">
          <mxGeometry width="50" height="50" relative="1" as="geometry">
            <mxPoint x="42" y="160" as="sourcePoint" />
            <mxPoint x="42" y="-5" as="targetPoint" />
          </mxGeometry>
        </mxCell>
        <mxCell id="To5orF7uD1d0cIAcC4Yz-66" value="" style="endArrow=none;html=1;rounded=0;strokeWidth=4;" edge="1" parent="To5orF7uD1d0cIAcC4Yz-61">
          <mxGeometry width="50" height="50" relative="1" as="geometry">
            <mxPoint x="2" y="160" as="sourcePoint" />
            <mxPoint x="2" y="-5" as="targetPoint" />
          </mxGeometry>
        </mxCell>
        <mxCell id="To5orF7uD1d0cIAcC4Yz-67" value="" style="endArrow=none;html=1;rounded=0;strokeWidth=4;" edge="1" parent="To5orF7uD1d0cIAcC4Yz-61">
          <mxGeometry width="50" height="50" relative="1" as="geometry">
            <mxPoint x="44" y="160" as="sourcePoint" />
            <mxPoint y="160" as="targetPoint" />
          </mxGeometry>
        </mxCell>
      </root>
    </mxGraphModel>
  </diagram>
</mxfile>
